<svg xmlns="http://www.w3.org/2000/svg" xmlns:xlink="http://www.w3.org/1999/xlink" width="24" height="24" viewBox="0 0 24 24">
    <defs>
        <path id="a" d="M17 12v1a2 2 0 1 0 4 0v-1a9 9 0 1 0-3.527 7.147 1 1 0 1 1 1.216 1.587A11 11 0 1 1 23 12v1a4 4 0 0 1-7.26 2.319A5 5 0 1 1 17 12zm-5 3a3 3 0 1 0 0-6 3 3 0 0 0 0 6z"/>
    </defs>
    <g fill="none" fill-rule="evenodd">
        <mask id="b" fill="#fff">
            <use xlink:href="#a"/>
        </mask>
        <use fill="#000" fill-rule="nonzero" xlink:href="#a"/>
        <g fill="#000" mask="url(#b)">
            <path d="M0 0h24v24H0z"/>
        </g>
    </g>
</svg>
