<svg xmlns="http://www.w3.org/2000/svg" width="24" height="24" viewBox="0 0 24 24">
    <g fill="none" fill-rule="nonzero">
        <ellipse cx="12" cy="11.912" fill="#FFF" rx="12" ry="11.912"/>
        <path fill="#F5A623" d="M16.111 14.372l1.63-4.876c.081-.234.02-.375-.047-.468-.169-.238-.516-.24-.583-.24l-9.206-.002-.246-1.166c-.066-.275-.262-.537-.658-.537H4.414c-.268 0-.414.125-.414.376v.673c0 .242.145.305.424.305h2.184l1.672 7.098c-.266.282-.41.692-.41 1.074 0 .842.67 1.618 1.526 1.618.809 0 1.415-.757 1.513-1.209h3.256c.099.452.59 1.227 1.513 1.227.841 0 1.525-.729 1.525-1.57 0-.835-.508-1.576-1.517-1.576-.42 0-.917.225-1.148.564h-4c-.291-.451-.688-.591-1.089-.607l-.055-.296h6.087c.459 0 .55-.167.63-.388zm-.422 1.712a.574.574 0 1 1 0 1.147.574.574 0 0 1 0-1.147zm-5.725.573a.58.58 0 1 1-1.162 0 .58.58 0 0 1 1.162 0z"/>
    </g>
</svg>
