<svg xmlns="http://www.w3.org/2000/svg" xmlns:xlink="http://www.w3.org/1999/xlink" width="16" height="16" viewBox="0 0 16 16">
    <defs>
        <path id="a" d="M15.456 5.141c-.147-.121-3.492-2.81-4.227-3.395C10.54 1.193 9.357 0 8 0 6.65 0 5.48 1.179 4.77 1.746 4.007 2.353.676 5.033.548 5.138A1.5 1.5 0 0 0 0 6.296V14.5A1.5 1.5 0 0 0 1.5 16h13a1.5 1.5 0 0 0 1.5-1.5V6.297a1.5 1.5 0 0 0-.544-1.156zm-.956 9.172a.187.187 0 0 1-.188.187H1.688a.187.187 0 0 1-.188-.188V6.386c0-.057.026-.11.07-.146.496-.4 3.4-2.736 4.136-3.322C6.274 2.465 7.262 1.5 8 1.5c.74 0 1.746.98 2.294 1.418.737.586 3.64 2.922 4.136 3.323.044.035.07.089.07.146v7.926zm-1-5.866c.133.161.109.4-.054.53-.906.728-1.853 1.488-2.217 1.777C10.52 11.321 9.35 12.5 8 12.5c-1.358 0-2.54-1.195-3.23-1.746-.352-.28-1.304-1.044-2.216-1.777a.375.375 0 0 1-.054-.53l.477-.58a.375.375 0 0 1 .524-.053c.894.719 1.83 1.47 2.205 1.768C6.254 10.02 7.26 11 8 11c.738 0 1.726-.965 2.294-1.418.375-.298 1.31-1.05 2.205-1.768a.375.375 0 0 1 .524.054l.477.579z"/>
    </defs>
    <g fill="none" fill-rule="evenodd">
        <mask id="b" fill="#fff">
            <use xlink:href="#a"/>
        </mask>
        <g fill="#4CAAF0" mask="url(#b)">
            <path d="M0 0h16v16H0z"/>
        </g>
    </g>
</svg>
