<svg xmlns="http://www.w3.org/2000/svg" width="164" height="90" viewBox="0 0 164 90">
    <path fill="#FFF" fill-rule="evenodd" d="M129.732 82.952v-1.803l-2.79-2.324h1.228l2.133 1.787 2.034-1.787h1.184l-2.779 2.324v1.803h-1.01zm-9.555 0v-4.127h4.303c.4 0 .688.063.863.188.174.125.263.327.263.61v.925c0 .279-.089.48-.263.603-.175.123-.463.185-.863.185h-.71l2.367 1.616h-1.352l-2.136-1.616h-1.462v1.616h-1.01zm3.86-3.524h-2.85v1.333h2.85c.225 0 .376-.028.454-.085.078-.057.117-.17.117-.333v-.496c0-.152-.042-.26-.124-.323-.082-.063-.23-.096-.447-.096zm-12.698.376c0-.377.093-.635.278-.773.185-.138.528-.206 1.035-.206h3.863c.507 0 .851.068 1.036.206.185.138.278.396.278.773v2.173c0 .378-.091.634-.274.77-.183.137-.53.205-1.04.205h-3.863c-.513 0-.86-.068-1.041-.203-.182-.135-.272-.392-.272-.772v-2.173zm1.01 2.525h4.47v-2.89h-4.47v2.89zm-4.935-2.89v3.513h-1.01v-3.514h-2.525v-.613h6.073v.613h-2.538zm-5.733 0h-3.738v2.89h3.738v-.983l1.01.148v.483c0 .378-.091.634-.274.77-.183.137-.53.205-1.04.205h-3.143c-.51 0-.855-.066-1.034-.198-.178-.132-.267-.39-.267-.777v-2.173c0-.382.09-.642.272-.776.18-.135.524-.203 1.029-.203h3.143c.51 0 .857.07 1.04.208.183.137.274.394.274.771v.392l-1.01.128v-.886zm-11.29 1.955l1.418-1.964 1.423 1.964H90.39zm-2.119 1.558h1.01l.684-.964h3.697l.697.964h1.096l-3.167-4.127h-.923l-3.094 4.127zm-5.065 0v-4.127h5.328v.613h-4.318v1.275h2.437v.604h-2.437v1.635h-1.01zm-12.46 0v-4.127h4.304c.4 0 .688.063.862.188.175.125.264.327.264.61v.925c0 .279-.089.48-.264.603-.174.123-.462.185-.862.185h-.71l2.366 1.616h-1.351l-2.136-1.616h-1.463v1.616h-1.01zm3.86-3.524c.216 0 .366.033.448.096.082.063.124.17.124.323v.496c0 .164-.04.276-.118.333-.078.057-.23.085-.454.085h-2.85v-1.333h2.85zm-12.698.376c0-.377.094-.635.278-.773.185-.138.528-.206 1.035-.206h3.864c.507 0 .85.068 1.036.206.184.138.277.396.277.773v2.173c0 .378-.09.634-.274.77-.182.137-.53.205-1.039.205h-3.864c-.513 0-.86-.068-1.04-.203-.182-.135-.273-.392-.273-.772v-2.173zm1.01 2.525h4.47v-2.89h-4.47v2.89zm-9.721-2.525c0-.377.092-.635.277-.773.186-.138.53-.206 1.036-.206h3.863c.508 0 .85.068 1.036.206.185.138.277.396.277.773v2.173c0 .378-.09.634-.273.77-.183.137-.53.205-1.04.205h-3.863c-.514 0-.86-.068-1.042-.203-.18-.135-.271-.392-.271-.772v-2.173zm1.01 2.525h4.47v-2.89h-4.47v2.89zm-7.047-4.4c.6 0 1.099.031 1.494.093.395.061.732.16 1.008.297.419.212.747.504.989.874.24.372.36.777.36 1.217 0 .469-.118.89-.354 1.267a2.46 2.46 0 0 1-.995.885c-.268.134-.6.23-1 .294a9.892 9.892 0 0 1-1.502.096h-3.586v-5.023h3.586zm-.154.682c1.04 0 1.782.139 2.226.42.445.28.668.74.668 1.376 0 .66-.22 1.132-.655 1.416-.435.285-1.182.428-2.239.428h-2.346v-3.64h2.346zm116.992-30.363l-.02.244c-.268 4.657-.403 8.66-.403 12.01 0 1.488.025 3.72.076 6.697.052 2.977.07 5.202.07 6.685 0 .288-.095.43-.294.43h-3.593c-.225 0-.34-.142-.34-.43 0-1.483.013-3.708.038-6.685.026-2.977.04-5.21.04-6.697 0-1.354-.065-3.388-.194-6.102-.128-2.714-.191-4.735-.191-6.075 0-.25.128-.379.39-.379.225 0 .565.02 1.014.058.45.038.783.058 1.014.058.23 0 .584-.02 1.046-.058.461-.038.802-.058 1.026-.058.225 0 .334.103.321.302zm-12.703 16.295c0-1.399-.385-2.592-1.148-3.567-.84-1.065-1.944-1.597-3.304-1.597-1.354 0-2.45.539-3.291 1.616-.764.975-1.148 2.162-1.148 3.548 0 1.366.391 2.547 1.167 3.535.84 1.077 1.931 1.616 3.272 1.616 1.328 0 2.419-.539 3.265-1.616.79-.988 1.187-2.169 1.187-3.535zm4.504-7.756c0 1.508-.013 3.766-.039 6.78a875.616 875.616 0 0 0-.038 6.775c0 2.984-.642 5.184-1.919 6.602-1.34 1.508-3.483 2.258-6.434 2.258-2.842 0-5.145-.539-6.897-1.61-.275-.174-.416-.328-.416-.45 0 .136.185-.788.564-2.777.038-.212.128-.321.263-.321.064 0 .147.032.243.097 1.887 1.064 3.773 1.597 5.666 1.597 1.244 0 2.277-.277 3.092-.828.937-.622 1.411-1.533 1.411-2.72 0-.263-.025-.853-.077-1.764-1.392 1.693-3.156 2.54-5.305 2.54-2.316 0-4.222-.833-5.716-2.502-1.43-1.604-2.143-3.58-2.143-5.921 0-2.38.692-4.408 2.072-6.076 1.47-1.777 3.375-2.668 5.722-2.668 2.073 0 3.721.795 4.94 2.38.199.263.34.391.43.391.103 0 .148-.115.148-.34 0-.16-.013-.423-.038-.776-.02-.36-.033-.623-.033-.796 0-.75.07-1.129.225-1.129.122 0 .795.116 2.014.346 1.226.231 1.893.373 2.002.424.173.064.263.225.263.488zm-18.63-.129c0 1.38-.097 2.637-.283 3.766-.038.289-.167.43-.378.43-.263 0-.66-.026-1.193-.083a12.211 12.211 0 0 0-1.22-.084c-1.584 0-2.598.443-3.034 1.335-.263.538-.398 1.661-.398 3.361v2.072c0 .7.026 1.765.077 3.195.052 1.425.077 2.49.077 3.195 0 .334-.14.507-.43.507-.385 0-.968-.006-1.751-.02a119.51 119.51 0 0 0-1.758-.019c-.282 0-.43-.153-.43-.468 0-1.013.02-2.546.052-4.587.032-2.04.045-3.58.045-4.606 0-3.092-.282-5.582-.847-7.461a1.002 1.002 0 0 1-.038-.225c0-.154.083-.257.243-.32.456-.052 1.104-.129 1.938-.231 1.34-.257 1.963-.385 1.86-.385.199 0 .333.372.391 1.116.064.75.18 1.123.34 1.123a.193.193 0 0 0 .097-.039c.513-.327 1.026-.654 1.546-.988a7.03 7.03 0 0 1 1.738-.757c.488-.147 1.117-.225 1.887-.225.981 0 1.469.135 1.469.398zm-18.599 8.5c0-1.539-.455-2.854-1.373-3.957-.962-1.187-2.194-1.785-3.7-1.785-1.502 0-2.754.591-3.761 1.765-.962 1.13-1.443 2.45-1.443 3.978 0 1.514.481 2.829 1.443 3.945 1.007 1.162 2.259 1.745 3.76 1.745 1.469 0 2.694-.596 3.682-1.783.93-1.116 1.392-2.413 1.392-3.907zm4.812-7.858c0 .051-.02.16-.058.34-.5 2.867-.75 5.338-.75 7.416 0 .129.16 2.939.48 8.436l.02.264c.013.365-.154.545-.5.545-.347 0-.866.039-1.566.121-.693.084-1.212.123-1.553.123-.237 0-.416-.437-.545-1.31-.128-.871-.243-1.308-.36-1.308-.076 0-.41.244-1.013.731-.738.597-1.43 1.053-2.065 1.367-.995.5-1.983.75-2.97.75-2.432 0-4.485-.968-6.153-2.913-1.578-1.853-2.367-4.015-2.367-6.485 0-2.778.795-5.08 2.386-6.897 1.668-1.892 3.862-2.835 6.582-2.835 1.918 0 3.593.667 5.017 1.995.212.25.546.616 1.001 1.09.032.04.07.058.11.058.076 0 .185-.39.32-1.187.14-.789.314-1.186.533-1.186.339 0 .974.096 1.905.282 1.033.225 1.546.43 1.546.603zM101.37 73.62c0 .488-.147.732-.436.732-.186 0-.475-.02-.853-.057a9.343 9.343 0 0 0-.879-.058c-.212 0-.533.013-.956.038-.43.026-.75.038-.962.038-.263 0-.398-.295-.398-.885 0-.577.026-1.437.07-2.585.046-1.149.065-2.008.065-2.586 0-3.168-.013-4.94-.039-5.305-.096-1.29-.36-2.181-.789-2.67-.488-.525-1.36-.788-2.61-.788-.79 0-1.676.379-2.664 1.13-1.026.788-1.558 1.565-1.597 2.328-.051.981-.077 2.765-.077 5.363 0 .616.026 1.534.077 2.765.052 1.225.07 2.15.07 2.765 0 .334-.108.507-.332.507-.231 0-.559-.02-.989-.057a12 12 0 0 0-.988-.058c-.205 0-.494.013-.885.038-.391.026-.686.038-.886.038-.25 0-.378-.179-.378-.545 0-.603.02-1.507.058-2.72.039-1.206.058-2.11.058-2.713v-4.536c0-1.418-.168-2.426-.507-3.028-.475-.853-1.386-1.277-2.727-1.277-.79 0-1.726.334-2.816.994-1.2.732-1.803 1.463-1.803 2.2v5.493c0 .628.006 1.565.02 2.803.012 1.245.019 2.169.019 2.784 0 .366-.148.545-.437.545h-3.496c-.25 0-.379-.166-.379-.506 0-1.014.007-2.534.02-4.568.012-2.034.02-3.554.02-4.568 0-2.29-.251-4.574-.752-6.851a1.798 1.798 0 0 1-.057-.392c0-.166.057-.256.173-.282a50.51 50.51 0 0 0 2.04-.289c.417-.128 1.039-.27 1.867-.423l.154-.02c.148 0 .289.443.424 1.329.128.891.25 1.334.346 1.334 0 0 .314-.282.943-.834.738-.642 1.476-1.155 2.214-1.534 1.064-.558 2.13-.834 3.195-.834 2.886 0 4.72 1.181 5.51 3.548a9.547 9.547 0 0 1 2.893-2.49c1.226-.705 2.444-1.058 3.644-1.058 2.323 0 3.926.674 4.811 2.028.642 1.007.963 2.592.963 4.76 0 .41-.013 1.053-.039 1.912a72.888 72.888 0 0 0-.038 1.918c0 .79.02 1.976.058 3.56.038 1.585.057 2.779.057 3.568zM69.07 56.929c0 .962-.058 2.418-.173 4.369-.116 1.95-.174 3.413-.174 4.388 0 .917.02 2.283.058 4.105.039 1.822.058 3.189.058 4.087 0 .264-.116.398-.34.398h-3.67c-.263 0-.397-.257-.397-.77 0-.866.025-2.168.07-3.9.045-1.739.064-3.04.064-3.92 0-.975-.07-2.444-.211-4.401-.142-1.95-.212-3.42-.212-4.395 0-.211.129-.32.391-.32.225 0 .571.032 1.04.096.468.058.82.09 1.058.09.237 0 .59-.032 1.06-.09.467-.064.82-.096 1.058-.096.211 0 .32.121.32.359zm.154-5.094c0 1.54-.86 2.31-2.58 2.31-1.744 0-2.616-.77-2.616-2.31 0-.686.27-1.257.808-1.706.5-.43 1.104-.642 1.809-.642.699 0 1.308.218 1.816.654.506.443.763 1.008.763 1.694zm-7.946-6.515c-.297.494-.708 1.239-1.225 2.235-.167.464-.456 1.118-.866 1.97a.425.425 0 0 1-.358.197c.016 0-.7-.266-2.152-.798-1.445-.533-2.638-.799-3.574-.799-2.73 0-4.098 1.203-4.098 3.605 0 1.33.958 2.502 2.874 3.498 3.216 1.673 4.996 2.639 5.338 2.897 1.917 1.528 2.875 3.59 2.875 6.19 0 3.33-1.316 5.954-3.947 7.87-2.365 1.727-5.278 2.586-8.73 2.586-1.604 0-2.464-.175-2.585-.533-.061-.57-.19-1.39-.404-2.478-.113-.442-.304-1.11-.554-2a1.183 1.183 0 0 1-.069-.38c0-.205.114-.312.335-.312.357 0 .905.037 1.643.113.745.076 1.3.115 1.672.115 4.624 0 6.936-1.49 6.936-4.464 0-1.46-.928-2.723-2.792-3.787-3.398-1.932-5.132-2.935-5.208-3.01-1.879-1.514-2.814-3.552-2.814-6.107 0-2.768.905-4.982 2.723-6.647 1.764-1.604 4.052-2.402 6.866-2.402 1.186 0 2.555.197 4.099.585 1.68.433 2.942.95 3.794 1.567.069.06.145.152.221.289zm-17.18-27.947c2.16-.323 4.854-.314 7.06-.309-.074.292.001.078-.183.312-2.834 3.575-.43.123-1.396 3.75-.72-.412-1.147-2.062-5.481-3.753zm-2.249 54.785c-1.59-.155-5.175-1.672-6.489-2.402-3.121-1.734-5.14-3.337-7.164-5.976-2.042-2.663-3.345-5.697-3.947-9.174-1.082-6.26.56-12.625 3.93-17.418 1.511-2.15 4.857-5.344 7.346-5.727-.327.478-.697.666-1.086 1.04l-2.788 3.338c-.855 1.312-2.263 3.65-2.627 5.498 1.32-1.287 2.87-2.12 5.514-2.263-.192.356-1.03 1.237-1.432 1.726-4.013 4.903-4.63 11.462-2.681 17.417 1.137 3.476 2.733 5.83 4.53 8.152.411.531 1.078 1.23 1.526 1.684 2.35 2.378 4.474 3.328 5.368 4.105zm-25.73-.48c-8.192-9.608-8.276-29.079-.873-40.72 4.57-7.187 11.729-11.915 20.592-10.243l-4.412 1.624c-3.393 1.533-8.034 5.399-8.87 9.182 2.102-.652 6.552-1.548 8.731-.51-.294.354-2.873 1.854-4.702 3.997l-1.953 2.42c-6.202 9.076-3.757 21.5 1.99 30.124.793 1.19 2.775 3.895 3.863 4.892l2.183 2.19c.541.561.678.595 1.166 1.027.475.42.78.613 1.154 1.01-2.08-.625-6.218-3.148-7.748-4.33-4.972-3.838-8.408-7.61-10.897-13.34a30.406 30.406 0 0 1-1.526-4.448c-.196-.74-.917-4.844-.98-4.953-1.214 2.92-.9 8.561-.472 11.818.274 2.076 1.124 6.03 1.896 8.018.283.728.681 1.562.859 2.241zM27.61 8.805c-.352 1.377-.471 2.039-.699 3.523-.894.44-2.147.83-3.097 1.226-5.99 2.496-11.183 6.226-15.241 11.17a45.93 45.93 0 0 0-1.957 2.568C1.69 34.145-1.195 44.978.477 55.456c1.054 6.603 4.075 13.585 8.045 18.38.7.845 1.158 1.452 2.049 2.327.398.392.665.739 1.06 1.128l2.359 2.167c.46.407.728.65 1.189 1 4.507 3.418 9.12 5.845 14.771 7.415 1.19.33 6.347 1.698 7.234 1.38-1.815-1.088-3.606-2.466-5.21-3.704a17.643 17.643 0 0 1-1.2-.988c-.503-.465-.743-.555-1.243-1.095-1.387-1.496-2.75-2.48-4.388-4.655-.652-.865-1.298-1.648-1.92-2.6-1.79-2.746-2.278-4.305-2.99-5.483-.363-.598-.03-.119-.306-.396.054 2.873.887 5.94 1.964 8.225 1.205 2.555 2.542 4.315 4.133 6.014-2.998-.904-7.217-3.978-9.065-5.602l-1.847-1.802c-10.766-10.53-12.334-28.25-6.06-41.605 1.243-2.647 4.41-8 6.526-9.961 2.916-2.704 2.733-3.143 7.009-5.981a34.393 34.393 0 0 1 4.69-2.605c4.327-1.974 1.966-.741 5.036.205-.216-3.428-.123-6.255 1.096-9.25.834-2.05 2.783-4.634 4.92-5.354-.098.374-.464 1.01-.642 1.465a12.377 12.377 0 0 0-.528 1.669c-.553 2.273-.709 5.32.525 7.379.442.736 1.517 1.91 2.344 2.064l-.523-1.64c2.445-.307 5.163-.418 7.599-.184 1.816.174 5.328.738 6.604 1.552l.63 4.143c-1.23.303-2.365 1.265-2.935 2.084 4.22-.877 7.745-1.337 11.974.148-1.022.536-1.39.653-1.951 1.435 1.494-.052 2.88-.487 4.438-.11 1.293.313 2.323.906 3.584 1.211.067 3.133 1.448 4.64.755 5.912-.94 1.727-3.917.928-5.49.283-3.51-1.44-5.875-3.402-10.197-4.247-7.584-1.484-16.613 1.96-17.013 11.077.969-.286 3.926-3.268 8.851-3.01-3.93 1.598-5.887 2.244-8.818 5.398-3.596 3.873-5.122 10.674-2.47 16.204 1.557 3.244 4.385 5.462 7.826 6.485 1.303.388 5.16.968 6.353.454-.824-.444-2.046-.341-4.146-1.794-2.326-1.61-4.185-4.36-4.966-7.14-.802-2.855.054-5.258.054-5.4.01-.057.504-1.174.628-1.282l1.241-1.695c1.68-2.353 4.989-3.599 5.003-3.616.213-.076.867-.429 2.095-.711.109.003 2.808-.605 5.828-.451 4.003.203 7.584 2.084 10.358-.677.825-.822 2.033-2.373 2.422-3.796-.262-.12-3.398-.87-5.2-1.606-1.61-.658-3.117-1.48-4.671-2.187-1.576-.716-3.239-1.368-5.09-1.76-2.177-.462-3.971-.429-6.121-.735 1.855-1.318 5.946-1.5 8.497-.763 2.784.804 4.808 2.206 7.032 3.47 2.204 1.25 5.006 2.685 8.161 1.764 4.041-1.182 3.456-4.55 4.756-5.627.38-1.09 1.782-3.296 1.355-4.538-.242-.492-4.658-1.696-5.51-1.961l-.547-.207c-.034-.017-.073-.043-.102-.06-.03-.018-.077-.052-.1-.067a.864.864 0 0 1-.1-.07c-.69.069-5.263-1.573-6.455-1.935-2.617-.796-4.382-1.318-7.464-1.026l.048-4.565c-2.335-1.224-6.126-2.375-8.884-2.918-1.133-.224-2.427-.315-3.513-.575-.178-1.052-.095-1.885.021-2.911.445-2.673 1.092-3.979 1.879-6.178-1.346.05-3.848 1.663-4.389 2.3-.982 1.155-1.656 2.564-2.255 4.353C38.855 5.41 41.274.914 41.222 0c-3.735.05-6.067.822-8.557 2.555-.583.405-1.064.718-1.533 1.244-.436.49-.977.91-1.439 1.477-.947 1.163-1.32 2.245-2.083 3.53z"/>
</svg>
