<svg xmlns="http://www.w3.org/2000/svg" xmlns:xlink="http://www.w3.org/1999/xlink" width="16" height="16" viewBox="0 0 16 16">
    <defs>
        <path id="a" d="M4 4.5v10A1.5 1.5 0 0 1 2.5 16h-1A1.5 1.5 0 0 1 0 14.5v-10A1.5 1.5 0 0 1 1.5 3h1A1.5 1.5 0 0 1 4 4.5zm12 2v8a1.5 1.5 0 0 1-1.5 1.5H6a1.5 1.5 0 0 1-1.5-1.5V1.25C4.5.56 5.06 0 5.75 0h6.482c.332 0 .65.132.884.366l1.518 1.518c.234.234.366.552.366.884v2.318A1.5 1.5 0 0 1 16 6.5zM6 6h7.5V3h-.75a.752.752 0 0 1-.75-.75V1.5H6V6zm3 6.375A.375.375 0 0 0 8.625 12h-1.25a.375.375 0 0 0-.375.375v1.25c0 .207.168.375.375.375h1.25A.375.375 0 0 0 9 13.625v-1.25zm0-4A.375.375 0 0 0 8.625 8h-1.25A.375.375 0 0 0 7 8.375v1.25c0 .207.168.375.375.375h1.25A.375.375 0 0 0 9 9.625v-1.25zm4 4a.375.375 0 0 0-.375-.375h-1.25a.375.375 0 0 0-.375.375v1.25c0 .207.168.375.375.375h1.25a.375.375 0 0 0 .375-.375v-1.25zm0-4A.375.375 0 0 0 12.625 8h-1.25a.375.375 0 0 0-.375.375v1.25c0 .207.168.375.375.375h1.25A.375.375 0 0 0 13 9.625v-1.25z"/>
    </defs>
    <use fill="#4CAAF0" fill-rule="evenodd" xlink:href="#a"/>
</svg>
