<svg xmlns="http://www.w3.org/2000/svg" xmlns:xlink="http://www.w3.org/1999/xlink" width="14" height="14" viewBox="0 0 14 14">
    <defs>
        <path id="a" d="M2.333.333h9.334a2 2 0 0 1 2 2v9.334a2 2 0 0 1-2 2H2.333a2 2 0 0 1-2-2V2.333a2 2 0 0 1 2-2zm0 1.334a.667.667 0 0 0-.666.666v9.334c0 .368.298.666.666.666h9.334a.667.667 0 0 0 .666-.666V2.333a.667.667 0 0 0-.666-.666H2.333zm2 6a.667.667 0 0 1 0-1.334h5.334a.667.667 0 0 1 0 1.334H4.333z"/>
    </defs>
    <use fill="#9B9B9B" fill-rule="nonzero" xlink:href="#a"/>
</svg>
