<svg xmlns="http://www.w3.org/2000/svg" width="24" height="24" viewBox="0 0 24 24">
    <path fill="#FFF" fill-rule="nonzero" d="M12 0C5.373 0 0 5.373 0 12s5.373 12 12 12 12-5.373 12-12S18.627 0 12 0zm6.337 17.51l-.961.96c-.171.172-.674.279-.69.279A11.34 11.34 0 0 1 8.57 15.43 11.353 11.353 0 0 1 5.25 7.286c0-.001.11-.49.281-.659l.961-.96c.352-.354 1.027-.514 1.5-.355l.202.067c.472.158.967.68 1.098 1.16l.483 1.774c.13.482-.046 1.168-.397 1.52l-.642.64a6.815 6.815 0 0 0 4.792 4.794l.641-.642c.354-.353 1.039-.529 1.52-.398l1.773.485c.481.132 1.003.624 1.16 1.095l.068.205c.157.472-.002 1.147-.353 1.497z"/>
</svg>
