<svg xmlns="http://www.w3.org/2000/svg" xmlns:xlink="http://www.w3.org/1999/xlink" width="14" height="14" viewBox="0 0 14 14">
    <defs>
        <path id="a" d="M7.667 6.333h2a.667.667 0 0 1 0 1.334h-2v2a.667.667 0 0 1-1.334 0v-2h-2a.667.667 0 0 1 0-1.334h2v-2a.667.667 0 0 1 1.334 0v2zm-5.334-6h9.334a2 2 0 0 1 2 2v9.334a2 2 0 0 1-2 2H2.333a2 2 0 0 1-2-2V2.333a2 2 0 0 1 2-2zm0 1.334a.667.667 0 0 0-.666.666v9.334c0 .368.298.666.666.666h9.334a.667.667 0 0 0 .666-.666V2.333a.667.667 0 0 0-.666-.666H2.333z"/>
    </defs>
    <use fill="#9B9B9B" fill-rule="nonzero" xlink:href="#a"/>
</svg>
