<svg xmlns="http://www.w3.org/2000/svg" xmlns:xlink="http://www.w3.org/1999/xlink" width="32" height="32" viewBox="0 0 32 32">
    <defs>
        <ellipse id="b" cx="12" cy="11.912" rx="12" ry="11.912"/>
        <filter id="a" width="150%" height="150.4%" x="-25%" y="-25.2%" filterUnits="objectBoundingBox">
            <feOffset in="SourceAlpha" result="shadowOffsetOuter1"/>
            <feGaussianBlur in="shadowOffsetOuter1" result="shadowBlurOuter1" stdDeviation="2"/>
            <feColorMatrix in="shadowBlurOuter1" values="0 0 0 0 0 0 0 0 0 0 0 0 0 0 0 0 0 0 0.123641304 0"/>
        </filter>
    </defs>
    <g fill="none" fill-rule="evenodd">
        <g fill-rule="nonzero" transform="translate(4 4)">
            <use fill="#000" filter="url(#a)" xlink:href="#b"/>
            <use fill="#FFF" fill-rule="evenodd" xlink:href="#b"/>
        </g>
        <path fill="#000" fill-rule="nonzero" d="M21.706 20.288L19.1 17.681c-.013-.014-.03-.023-.044-.036a4.934 4.934 0 1 0-1.41 1.41c.013.014.022.03.036.044l2.607 2.607a1.003 1.003 0 0 0 1.418-1.418zm-6.831-2.038a3.375 3.375 0 1 1 0-6.75 3.375 3.375 0 0 1 0 6.75z"/>
    </g>
</svg>
