<svg xmlns="http://www.w3.org/2000/svg" xmlns:xlink="http://www.w3.org/1999/xlink" width="16" height="16" viewBox="0 0 16 16">
    <defs>
        <path id="a" d="M8 0a8 8 0 1 0 0 16A8 8 0 0 0 8 0zm0 1.548A6.448 6.448 0 0 1 14.452 8c0 1.112-.281 2.158-.776 3.071a3.63 3.63 0 0 0-2.174-1.825c.44-.672.675-1.457.675-2.278A4.175 4.175 0 0 0 8 2.79a4.175 4.175 0 0 0-4.177 4.178c0 .821.235 1.606.675 2.278a3.63 3.63 0 0 0-2.174 1.825A6.428 6.428 0 0 1 1.548 8 6.448 6.448 0 0 1 8 1.548zm-2.58 5.42a2.58 2.58 0 1 1 5.16 0 2.58 2.58 0 0 1-5.16 0zM3.485 12.61a2.064 2.064 0 0 1 2.062-1.97h.458a4.19 4.19 0 0 0 3.989 0h.457c1.108 0 2.013.873 2.062 1.97a6.454 6.454 0 0 1-9.028 0z"/>
    </defs>
    <g fill="none" fill-rule="evenodd">
        <mask id="b" fill="#fff">
            <use xlink:href="#a"/>
        </mask>
        <g fill="#4CAAF0" mask="url(#b)">
            <path d="M0 0h16v16H0z"/>
        </g>
    </g>
</svg>
